<svg width="49" height="48" viewBox="0 0 49 48" fill="none" xmlns="http://www.w3.org/2000/svg">
<g id="uil:schedule">
<path id="Vector" d="M24.334 28C24.7295 28 25.1162 27.8827 25.4451 27.6629C25.774 27.4432 26.0304 27.1308 26.1817 26.7654C26.3331 26.3999 26.3727 25.9978 26.2956 25.6098C26.2184 25.2219 26.0279 24.8655 25.7482 24.5858C25.4685 24.3061 25.1121 24.1156 24.7242 24.0384C24.3362 23.9613 23.9341 24.0009 23.5686 24.1522C23.2032 24.3036 22.8908 24.56 22.671 24.8889C22.4513 25.2178 22.334 25.6044 22.334 26C22.334 26.5304 22.5447 27.0391 22.9198 27.4142C23.2948 27.7893 23.8036 28 24.334 28ZM34.334 28C34.7295 28 35.1162 27.8827 35.4451 27.6629C35.774 27.4432 36.0304 27.1308 36.1817 26.7654C36.3331 26.3999 36.3727 25.9978 36.2956 25.6098C36.2184 25.2219 36.0279 24.8655 35.7482 24.5858C35.4685 24.3061 35.1121 24.1156 34.7242 24.0384C34.3362 23.9613 33.9341 24.0009 33.5686 24.1522C33.2032 24.3036 32.8908 24.56 32.671 24.8889C32.4513 25.2178 32.334 25.6044 32.334 26C32.334 26.5304 32.5447 27.0391 32.9198 27.4142C33.2948 27.7893 33.8036 28 34.334 28ZM24.334 36C24.7295 36 25.1162 35.8827 25.4451 35.6629C25.774 35.4432 26.0304 35.1308 26.1817 34.7654C26.3331 34.3999 26.3727 33.9978 26.2956 33.6098C26.2184 33.2219 26.0279 32.8655 25.7482 32.5858C25.4685 32.3061 25.1121 32.1156 24.7242 32.0384C24.3362 31.9613 23.9341 32.0009 23.5686 32.1522C23.2032 32.3036 22.8908 32.56 22.671 32.8889C22.4513 33.2178 22.334 33.6044 22.334 34C22.334 34.5304 22.5447 35.0391 22.9198 35.4142C23.2948 35.7893 23.8036 36 24.334 36ZM34.334 36C34.7295 36 35.1162 35.8827 35.4451 35.6629C35.774 35.4432 36.0304 35.1308 36.1817 34.7654C36.3331 34.3999 36.3727 33.9978 36.2956 33.6098C36.2184 33.2219 36.0279 32.8655 35.7482 32.5858C35.4685 32.3061 35.1121 32.1156 34.7242 32.0384C34.3362 31.9613 33.9341 32.0009 33.5686 32.1522C33.2032 32.3036 32.8908 32.56 32.671 32.8889C32.4513 33.2178 32.334 33.6044 32.334 34C32.334 34.5304 32.5447 35.0391 32.9198 35.4142C33.2948 35.7893 33.8036 36 34.334 36ZM14.334 28C14.7295 28 15.1162 27.8827 15.4451 27.6629C15.774 27.4432 16.0304 27.1308 16.1817 26.7654C16.3331 26.3999 16.3727 25.9978 16.2956 25.6098C16.2184 25.2219 16.0279 24.8655 15.7482 24.5858C15.4685 24.3061 15.1121 24.1156 14.7242 24.0384C14.3362 23.9613 13.9341 24.0009 13.5686 24.1522C13.2032 24.3036 12.8908 24.56 12.671 24.8889C12.4513 25.2178 12.334 25.6044 12.334 26C12.334 26.5304 12.5447 27.0391 12.9198 27.4142C13.2948 27.7893 13.8036 28 14.334 28ZM38.334 8H36.334V6C36.334 5.46957 36.1233 4.96086 35.7482 4.58579C35.3731 4.21071 34.8644 4 34.334 4C33.8036 4 33.2948 4.21071 32.9198 4.58579C32.5447 4.96086 32.334 5.46957 32.334 6V8H16.334V6C16.334 5.46957 16.1233 4.96086 15.7482 4.58579C15.3731 4.21071 14.8644 4 14.334 4C13.8036 4 13.2948 4.21071 12.9198 4.58579C12.5447 4.96086 12.334 5.46957 12.334 6V8H10.334C8.74269 8 7.21656 8.63214 6.09134 9.75736C4.96613 10.8826 4.33398 12.4087 4.33398 14V38C4.33398 39.5913 4.96613 41.1174 6.09134 42.2426C7.21656 43.3679 8.74269 44 10.334 44H38.334C39.9253 44 41.4514 43.3679 42.5766 42.2426C43.7018 41.1174 44.334 39.5913 44.334 38V14C44.334 12.4087 43.7018 10.8826 42.5766 9.75736C41.4514 8.63214 39.9253 8 38.334 8ZM40.334 38C40.334 38.5304 40.1233 39.0391 39.7482 39.4142C39.3731 39.7893 38.8644 40 38.334 40H10.334C9.80355 40 9.29484 39.7893 8.91977 39.4142C8.5447 39.0391 8.33398 38.5304 8.33398 38V20H40.334V38ZM40.334 16H8.33398V14C8.33398 13.4696 8.5447 12.9609 8.91977 12.5858C9.29484 12.2107 9.80355 12 10.334 12H38.334C38.8644 12 39.3731 12.2107 39.7482 12.5858C40.1233 12.9609 40.334 13.4696 40.334 14V16ZM14.334 36C14.7295 36 15.1162 35.8827 15.4451 35.6629C15.774 35.4432 16.0304 35.1308 16.1817 34.7654C16.3331 34.3999 16.3727 33.9978 16.2956 33.6098C16.2184 33.2219 16.0279 32.8655 15.7482 32.5858C15.4685 32.3061 15.1121 32.1156 14.7242 32.0384C14.3362 31.9613 13.9341 32.0009 13.5686 32.1522C13.2032 32.3036 12.8908 32.56 12.671 32.8889C12.4513 33.2178 12.334 33.6044 12.334 34C12.334 34.5304 12.5447 35.0391 12.9198 35.4142C13.2948 35.7893 13.8036 36 14.334 36Z" fill="#FF5A5A"/>
</g>
</svg>
