<svg width="49" height="48" viewBox="0 0 49 48" fill="none" xmlns="http://www.w3.org/2000/svg">
<g id="ph:battery-vertical-high-fill">
<path id="Vector" d="M17.166 1.5C17.166 1.10218 17.3241 0.720644 17.6054 0.43934C17.8867 0.158035 18.2682 0 18.666 0L30.666 0C31.0638 0 31.4454 0.158035 31.7267 0.43934C32.008 0.720644 32.166 1.10218 32.166 1.5C32.166 1.89782 32.008 2.27936 31.7267 2.56066C31.4454 2.84196 31.0638 3 30.666 3H18.666C18.2682 3 17.8867 2.84196 17.6054 2.56066C17.3241 2.27936 17.166 1.89782 17.166 1.5ZM30.666 19.5H18.666C18.2682 19.5 17.8867 19.658 17.6054 19.9393C17.3241 20.2206 17.166 20.6022 17.166 21V39C17.166 39.3978 17.3241 39.7794 17.6054 40.0607C17.8867 40.342 18.2682 40.5 18.666 40.5H30.666C31.0638 40.5 31.4454 40.342 31.7267 40.0607C32.008 39.7794 32.166 39.3978 32.166 39V21C32.166 20.6022 32.008 20.2206 31.7267 19.9393C31.4454 19.658 31.0638 19.5 30.666 19.5ZM38.166 10.5V42C38.166 43.1935 37.6919 44.3381 36.848 45.182C36.0041 46.0259 34.8595 46.5 33.666 46.5H15.666C14.4725 46.5 13.3279 46.0259 12.484 45.182C11.6401 44.3381 11.166 43.1935 11.166 42V10.5C11.166 9.30653 11.6401 8.16193 12.484 7.31802C13.3279 6.47411 14.4725 6 15.666 6H33.666C34.8595 6 36.0041 6.47411 36.848 7.31802C37.6919 8.16193 38.166 9.30653 38.166 10.5ZM35.166 10.5C35.166 10.1022 35.008 9.72064 34.7267 9.43934C34.4454 9.15804 34.0638 9 33.666 9H15.666C15.2682 9 14.8867 9.15804 14.6054 9.43934C14.3241 9.72064 14.166 10.1022 14.166 10.5V42C14.166 42.3978 14.3241 42.7794 14.6054 43.0607C14.8867 43.342 15.2682 43.5 15.666 43.5H33.666C34.0638 43.5 34.4454 43.342 34.7267 43.0607C35.008 42.7794 35.166 42.3978 35.166 42V10.5Z" fill="#FF5A5A"/>
</g>
</svg>
