<svg width="44" height="44" viewBox="0 0 44 44" fill="none" xmlns="http://www.w3.org/2000/svg">
<g id="Group">
<path id="Vector" d="M30 10C30 6.228 30 4.344 28.828 3.172C27.656 2 25.772 2 22 2C18.228 2 16.344 2 15.172 3.172C14 4.344 14 6.228 14 10M2 26C2 18.458 2 14.686 4.344 12.344C6.686 10 10.458 10 18 10H26C33.542 10 37.314 10 39.656 12.344C42 14.686 42 18.458 42 26C42 33.542 42 37.314 39.656 39.656C37.314 42 33.542 42 26 42H18C10.458 42 6.686 42 4.344 39.656C2 37.314 2 33.542 2 26Z" stroke="#FF5A5A" stroke-width="3"/>
<path id="Vector_2" d="M22 32.666C24.21 32.666 26 31.174 26 29.334C26 27.494 24.21 26 22 26C19.79 26 18 24.508 18 22.666C18 20.826 19.79 19.334 22 19.334M22 32.666C19.79 32.666 18 31.174 18 29.334M22 32.666V34M22 19.334V18M22 19.334C24.21 19.334 26 20.826 26 22.666" stroke="#FF5A5A" stroke-width="3" stroke-linecap="round"/>
</g>
</svg>
