<svg width="189" height="79" viewBox="0 0 189 79" fill="none" xmlns="http://www.w3.org/2000/svg">
<g id="Group 136">
<g id="Group">
<path id="Vector" d="M76.1213 48.3893H33.4336L44.1082 26.5741H76.1213V48.3893Z" fill="white" stroke="black" stroke-width="2" stroke-miterlimit="10"/>
<path id="Vector_2" d="M182.198 15.8195H151.455V26.5742H182.198V15.8195Z" fill="white" stroke="black" stroke-width="2" stroke-miterlimit="10"/>
<path id="Vector_3" d="M153.177 32.1067H129.127V64.6766H162.784V46.4369L153.177 32.1067Z" fill="white" stroke="black" stroke-width="2" stroke-miterlimit="10"/>
<path id="Vector_4" d="M53.3638 44.2258L50.3073 37.3336H21.3613V64.5638H148.624L142.123 49.2409C140.81 46.1453 138.334 44.2258 135.647 44.2258H53.3638Z" fill="white" stroke="black" stroke-width="2" stroke-miterlimit="10"/>
<path id="Vector_5" d="M165.748 53.6113H17.4277V65.147H165.748V53.6113Z" fill="white" stroke="black" stroke-width="2" stroke-miterlimit="10"/>
<path id="Vector_6" d="M32.1486 71.2629C36.3933 71.2629 39.8343 66.7133 39.8343 61.101C39.8343 55.4887 36.3933 50.9391 32.1486 50.9391C27.9039 50.9391 24.4629 55.4887 24.4629 61.101C24.4629 66.7133 27.9039 71.2629 32.1486 71.2629Z" fill="white" stroke="black" stroke-width="2" stroke-miterlimit="10"/>
<path id="Vector_7" d="M51.715 71.2629C55.9597 71.2629 59.4007 66.7133 59.4007 61.101C59.4007 55.4887 55.9597 50.9391 51.715 50.9391C47.4703 50.9391 44.0293 55.4887 44.0293 61.101C44.0293 66.7133 47.4703 71.2629 51.715 71.2629Z" fill="white" stroke="black" stroke-width="2" stroke-miterlimit="10"/>
<path id="Vector_8" d="M71.2853 71.2629C75.53 71.2629 78.971 66.7133 78.971 61.101C78.971 55.4887 75.53 50.9391 71.2853 50.9391C67.0406 50.9391 63.5996 55.4887 63.5996 61.101C63.5996 66.7133 67.0406 71.2629 71.2853 71.2629Z" fill="white" stroke="black" stroke-width="2" stroke-miterlimit="10"/>
<path id="Vector_9" d="M94.174 71.2629C98.4187 71.2629 101.86 66.7133 101.86 61.101C101.86 55.4887 98.4187 50.9391 94.174 50.9391C89.9293 50.9391 86.4883 55.4887 86.4883 61.101C86.4883 66.7133 89.9293 71.2629 94.174 71.2629Z" fill="white" stroke="black" stroke-width="2" stroke-miterlimit="10"/>
<path id="Vector_10" d="M113.742 71.2629C117.987 71.2629 121.428 66.7133 121.428 61.101C121.428 55.4887 117.987 50.9391 113.742 50.9391C109.498 50.9391 106.057 55.4887 106.057 61.101C106.057 66.7133 109.498 71.2629 113.742 71.2629Z" fill="white" stroke="black" stroke-width="2" stroke-miterlimit="10"/>
<path id="Vector_11" d="M133.313 71.2629C137.557 71.2629 140.998 66.7133 140.998 61.101C140.998 55.4887 137.557 50.9391 133.313 50.9391C129.068 50.9391 125.627 55.4887 125.627 61.101C125.627 66.7133 129.068 71.2629 133.313 71.2629Z" fill="white" stroke="black" stroke-width="2" stroke-miterlimit="10"/>
<g id="Group_2">
<path id="Vector_12" d="M32.1479 65.147C30.4613 65.147 29.0879 63.331 29.0879 61.101C29.0879 58.871 30.4613 57.0551 32.1479 57.0551C33.8345 57.0551 35.208 58.871 35.208 61.101C35.208 63.331 33.8345 65.147 32.1479 65.147Z" fill="white"/>
<path id="Vector_13" d="M32.1479 65.147C30.4613 65.147 29.0879 63.331 29.0879 61.101C29.0879 58.871 30.4613 57.0551 32.1479 57.0551C33.8345 57.0551 35.208 58.871 35.208 61.101C35.208 63.331 33.8345 65.147 32.1479 65.147Z" stroke="black" stroke-width="2" stroke-miterlimit="10"/>
</g>
<g id="Group_3">
<path id="Vector_14" d="M51.7163 65.1471C50.0297 65.1471 48.6562 63.3311 48.6562 61.1011C48.6562 58.8712 50.0297 57.0552 51.7163 57.0552C53.4029 57.0552 54.7764 58.8712 54.7764 61.1011C54.7764 63.3311 53.4029 65.1471 51.7163 65.1471Z" fill="white"/>
<path id="Vector_15" d="M51.7163 65.1471C50.0297 65.1471 48.6562 63.3311 48.6562 61.1011C48.6562 58.8712 50.0297 57.0552 51.7163 57.0552C53.4029 57.0552 54.7764 58.8712 54.7764 61.1011C54.7764 63.3311 53.4029 65.1471 51.7163 65.1471Z" stroke="black" stroke-width="2" stroke-miterlimit="10"/>
</g>
<g id="Group_4">
<path id="Vector_16" d="M71.2866 65.147C69.6 65.147 68.2266 63.331 68.2266 61.101C68.2266 58.871 69.6 57.0551 71.2866 57.0551C72.9732 57.0551 74.3467 58.871 74.3467 61.101C74.3467 63.331 72.9732 65.147 71.2866 65.147Z" fill="white"/>
<path id="Vector_17" d="M71.2866 65.147C69.6 65.147 68.2266 63.331 68.2266 61.101C68.2266 58.871 69.6 57.0551 71.2866 57.0551C72.9732 57.0551 74.3467 58.871 74.3467 61.101C74.3467 63.331 72.9732 65.147 71.2866 65.147Z" stroke="black" stroke-width="2" stroke-miterlimit="10"/>
</g>
<g id="Group_5">
<path id="Vector_18" d="M94.1753 65.1471C92.4887 65.1471 91.1152 63.3311 91.1152 61.1011C91.1152 58.8712 92.4887 57.0552 94.1753 57.0552C95.8619 57.0552 97.2353 58.8712 97.2353 61.1011C97.2353 63.3311 95.8619 65.1471 94.1753 65.1471Z" fill="white"/>
<path id="Vector_19" d="M94.1753 65.1471C92.4887 65.1471 91.1152 63.3311 91.1152 61.1011C91.1152 58.8712 92.4887 57.0552 94.1753 57.0552C95.8619 57.0552 97.2353 58.8712 97.2353 61.1011C97.2353 63.3311 95.8619 65.1471 94.1753 65.1471Z" stroke="black" stroke-width="2" stroke-miterlimit="10"/>
</g>
<g id="Group_6">
<path id="Vector_20" d="M113.744 65.147C112.057 65.147 110.684 63.331 110.684 61.101C110.684 58.871 112.057 57.0551 113.744 57.0551C115.43 57.0551 116.804 58.871 116.804 61.101C116.804 63.331 115.43 65.147 113.744 65.147Z" fill="white"/>
<path id="Vector_21" d="M113.744 65.147C112.057 65.147 110.684 63.331 110.684 61.101C110.684 58.871 112.057 57.0551 113.744 57.0551C115.43 57.0551 116.804 58.871 116.804 61.101C116.804 63.331 115.43 65.147 113.744 65.147Z" stroke="black" stroke-width="2" stroke-miterlimit="10"/>
</g>
<g id="Group_7">
<path id="Vector_22" d="M133.312 65.1471C131.625 65.1471 130.252 63.3311 130.252 61.1011C130.252 58.8712 131.625 57.0552 133.312 57.0552C134.999 57.0552 136.372 58.8712 136.372 61.1011C136.372 63.3311 134.999 65.1471 133.312 65.1471Z" fill="white"/>
<path id="Vector_23" d="M133.312 65.1471C131.625 65.1471 130.252 63.3311 130.252 61.1011C130.252 58.8712 131.625 57.0552 133.312 57.0552C134.999 57.0552 136.372 58.8712 136.372 61.1011C136.372 63.3311 134.999 65.1471 133.312 65.1471Z" stroke="black" stroke-width="2" stroke-miterlimit="10"/>
</g>
<path id="Vector_24" d="M54.7752 5.88342H15.1582V13.4061L21.3602 26.5742H54.7752V5.88342Z" fill="white" stroke="black" stroke-width="2" stroke-miterlimit="10"/>
<path id="Vector_25" d="M168.175 11.8251H54.7754V26.574H168.175V11.8251Z" fill="white" stroke="black" stroke-width="2" stroke-miterlimit="10"/>
<path id="Vector_26" d="M182.414 39.648H172.309V11.8251H187L182.414 39.648Z" fill="white" stroke="black" stroke-width="2" stroke-miterlimit="10"/>
<path id="Vector_27" d="M110.682 16.3793H54.7754V26.5741H110.682V16.3793Z" fill="white" stroke="black" stroke-width="2" stroke-miterlimit="10"/>
<path id="Vector_28" d="M118.015 11.8251H110.682V26.574H118.015V11.8251Z" fill="white" stroke="black" stroke-width="2" stroke-miterlimit="10"/>
<path id="Vector_29" d="M168.176 5.88342H164.941V26.5742H168.176V5.88342Z" fill="white" stroke="black" stroke-width="2" stroke-miterlimit="10"/>
<path id="Vector_30" d="M175.184 5.88342H172.309V39.6483H175.184V5.88342Z" fill="white" stroke="black" stroke-width="2" stroke-miterlimit="10"/>
<path id="Vector_31" d="M57.7892 1.91272H54.7754V26.5742H57.7892V1.91272Z" fill="white" stroke="black" stroke-width="2" stroke-miterlimit="10"/>
<path id="Vector_32" d="M155.629 44.1035L150.558 36.021H145.523V44.1035H155.629Z" fill="white" stroke="black" stroke-width="2" stroke-miterlimit="10"/>
<path id="Vector_33" d="M89.973 26.5175H54.9141V32.4641H89.973V26.5175Z" fill="white" stroke="black" stroke-width="2" stroke-miterlimit="10"/>
<path id="Vector_34" d="M21.3613 40.0623H51.5171" stroke="black" stroke-width="2" stroke-miterlimit="10"/>
<path id="Vector_35" d="M46.8691 21.1966V11.8251" stroke="black" stroke-width="2" stroke-miterlimit="10"/>
<path id="Vector_36" d="M43.4531 21.1966V11.8251" stroke="black" stroke-width="2" stroke-miterlimit="10"/>
<path id="Vector_37" d="M39.832 21.1966V11.8251" stroke="black" stroke-width="2" stroke-miterlimit="10"/>
<path id="Vector_38" d="M165.749 53.6113H162.785V65.147H165.749V53.6113Z" fill="white" stroke="black" stroke-width="2" stroke-miterlimit="10"/>
</g>
<path id="Vector_39" d="M151.455 71.2631H0.84375" stroke="black" stroke-width="2" stroke-miterlimit="10"/>
<path id="Vector_40" d="M30.0605 77.0873H107.085" stroke="black" stroke-width="2" stroke-miterlimit="10"/>
</g>
</svg>
