<svg width="126" height="129" viewBox="0 0 126 129" fill="none" xmlns="http://www.w3.org/2000/svg">
<path d="M111.985 13.6711L106.352 6.22238L17.4877 73.4296L23.1211 80.8783L111.985 13.6711Z" fill="white" stroke="black" stroke-width="2" stroke-miterlimit="10"/>
<path d="M110.704 9.78079L30.9082 70.1177" stroke="black" stroke-width="2" stroke-miterlimit="10"/>
<path d="M53.1947 60.9182H18.2109V70.2689H53.1947V60.9182Z" fill="white" stroke="black" stroke-width="2" stroke-miterlimit="10"/>
<path d="M109.171 53.264C111.608 53.264 113.584 51.2882 113.584 48.851C113.584 46.4137 111.608 44.4379 109.171 44.4379C106.734 44.4379 104.758 46.4137 104.758 48.851C104.758 51.2882 106.734 53.264 109.171 53.264Z" fill="white" stroke="black" stroke-width="2" stroke-miterlimit="10"/>
<path d="M77.3351 91.7748H23.8655C19.0094 91.7748 14.7596 88.5218 13.4887 83.8406L11.2094 75.4285C10.504 72.8343 12.4627 70.275 15.1502 70.275H80.9728C83.6311 70.275 85.5607 72.7993 84.867 75.3643L81.2235 88.7958C80.7454 90.5564 79.1539 91.7748 77.3292 91.7748H77.3351Z" fill="white" stroke="black" stroke-width="2" stroke-miterlimit="10"/>
<path d="M66.434 58.3243H46.9396C46.3216 58.3243 45.8203 58.8257 45.8203 59.4436V90.6556C45.8203 91.2735 46.3216 91.7749 46.9396 91.7749H72.0945C72.7125 91.7749 73.2138 91.2735 73.2138 90.6556V77.2182C73.2138 77.1016 73.1963 76.9909 73.1613 76.8801L67.4949 59.1113C67.3492 58.645 66.9178 58.3301 66.4281 58.3301L66.434 58.3243Z" fill="white" stroke="black" stroke-width="2" stroke-miterlimit="10"/>
<path d="M65.9269 91.7747H45.8262V97.2138H65.9269V91.7747Z" fill="white" stroke="black" stroke-width="2" stroke-miterlimit="10"/>
<path d="M66.4744 75.6091L63.0816 64.0022C62.9416 63.5242 62.5044 63.1978 62.0089 63.1978H52.6173C51.9994 63.1978 51.498 63.6991 51.498 64.3171V75.9239C51.498 76.5418 51.9994 77.0432 52.6173 77.0432H65.4018C66.1479 77.0432 66.6843 76.3262 66.4744 75.6091Z" fill="white" stroke="black" stroke-width="2" stroke-miterlimit="10"/>
<path d="M36.5039 86.8254V75.2186" stroke="black" stroke-width="2" stroke-miterlimit="10"/>
<path d="M30.9082 86.8254V75.2186" stroke="black" stroke-width="2" stroke-miterlimit="10"/>
<path d="M24.9785 86.8254V75.2186" stroke="black" stroke-width="2" stroke-miterlimit="10"/>
<path d="M115.951 120.632H-43.1055" stroke="black" stroke-width="2" stroke-miterlimit="10"/>
<path d="M-0.689453 127.848H125.511" stroke="black" stroke-width="2" stroke-miterlimit="10"/>
<path d="M83.4089 95.8555H16.6943C9.82043 95.8555 4.24805 101.428 4.24805 108.302C4.24805 115.176 9.82043 120.748 16.6943 120.748H83.4089C90.2828 120.748 95.8552 115.176 95.8552 108.302C95.8552 101.428 90.2828 95.8555 83.4089 95.8555Z" fill="white" stroke="black" stroke-width="2" stroke-miterlimit="10"/>
<path d="M17.2081 115.373C21.1135 115.373 24.2795 112.207 24.2795 108.302C24.2795 104.396 21.1135 101.231 17.2081 101.231C13.3027 101.231 10.1367 104.396 10.1367 108.302C10.1367 112.207 13.3027 115.373 17.2081 115.373Z" fill="white" stroke="black" stroke-width="2" stroke-miterlimit="10"/>
<path d="M38.837 115.373C42.7424 115.373 45.9084 112.207 45.9084 108.302C45.9084 104.396 42.7424 101.231 38.837 101.231C34.9316 101.231 31.7656 104.396 31.7656 108.302C31.7656 112.207 34.9316 115.373 38.837 115.373Z" fill="white" stroke="black" stroke-width="2" stroke-miterlimit="10"/>
<path d="M61.3389 115.373C65.2444 115.373 68.4103 112.207 68.4103 108.302C68.4103 104.396 65.2444 101.231 61.3389 101.231C57.4335 101.231 54.2676 104.396 54.2676 108.302C54.2676 112.207 57.4335 115.373 61.3389 115.373Z" fill="white" stroke="black" stroke-width="2" stroke-miterlimit="10"/>
<path d="M83.1886 115.373C87.094 115.373 90.2599 112.207 90.2599 108.302C90.2599 104.396 87.094 101.231 83.1886 101.231C79.2831 101.231 76.1172 104.396 76.1172 108.302C76.1172 112.207 79.2831 115.373 83.1886 115.373Z" fill="white" stroke="black" stroke-width="2" stroke-miterlimit="10"/>
<path d="M17.209 101.231H85.0137" stroke="black" stroke-width="2" stroke-miterlimit="10"/>
<path d="M83.189 115.373H17.209" stroke="black" stroke-width="2" stroke-miterlimit="10"/>
<path d="M111.52 1.2634H106.395C103.108 1.2634 100.443 3.92824 100.443 7.21548V12.3397C100.443 15.627 103.108 18.2918 106.395 18.2918H111.52C114.807 18.2918 117.472 15.627 117.472 12.3397V7.21548C117.472 3.92824 114.807 1.2634 111.52 1.2634Z" fill="white" stroke="black" stroke-width="2" stroke-miterlimit="10"/>
<path d="M108.955 9.78079V58.3243" stroke="black" stroke-width="2" stroke-miterlimit="10"/>
<path d="M114.202 63.1977H104.14L102.391 53.9344L108.955 49.8536L115.95 53.9344L114.202 63.1977Z" fill="white" stroke="black" stroke-width="2" stroke-miterlimit="10"/>
<path d="M108.927 62.6148V66.6081L106.292 69.4413C105.698 70.0767 105.371 70.9162 105.371 71.7848V72.1579C105.371 73.1956 105.837 74.175 106.642 74.8279L106.747 74.9154C108.076 75.9997 110.006 75.9414 111.265 74.7696C111.97 74.1167 112.367 73.2014 112.367 72.2454V71.3184" stroke="black" stroke-width="2" stroke-miterlimit="10"/>
<path d="M108.956 13.0628C110.769 13.0628 112.238 11.5933 112.238 9.78066C112.238 7.96801 110.769 6.4986 108.956 6.4986C107.143 6.4986 105.674 7.96801 105.674 9.78066C105.674 11.5933 107.143 13.0628 108.956 13.0628Z" fill="white" stroke="black" stroke-width="2" stroke-miterlimit="10"/>
</svg>
