<svg width="178" height="134" viewBox="0 0 178 134" fill="none" xmlns="http://www.w3.org/2000/svg">
<g id="Group 132">
<path id="Vector" d="M67.3291 54.1204L82.9111 87.8L94.6525 79.3007L73.3067 49.7975L67.3291 54.1204Z" fill="white" stroke="black" stroke-width="2" stroke-miterlimit="10"/>
<path id="Vector_2" d="M126.145 95.066H70.1431C65.057 95.066 60.6059 91.659 59.2749 86.756C57.3332 79.6001 62.7246 72.5479 70.1431 72.5479H129.962C132.746 72.5479 134.767 75.1917 134.04 77.8782L130.224 91.946C129.723 93.7899 128.057 95.066 126.145 95.066Z" fill="white" stroke="black" stroke-width="2" stroke-miterlimit="10"/>
<path id="Vector_3" d="M162.658 4.66354L100.343 78.6902L112.09 87.1833L168.63 8.98034L162.658 4.66354Z" fill="white" stroke="black" stroke-width="2" stroke-miterlimit="10"/>
<path id="Vector_4" d="M114.728 60.031H94.31C93.6628 60.031 93.1377 60.5561 93.1377 61.2033V93.8937C93.1377 94.5409 93.6628 95.066 94.31 95.066H120.656C121.304 95.066 121.829 94.5409 121.829 93.8937V79.8198C121.829 79.6977 121.811 79.5817 121.774 79.4657L115.839 60.8553C115.686 60.3668 115.235 60.0371 114.722 60.0371L114.728 60.031Z" fill="white" stroke="black" stroke-width="2" stroke-miterlimit="10"/>
<path id="Vector_5" d="M114.19 95.0659H93.1377V100.763H114.19V95.0659Z" fill="white" stroke="black" stroke-width="2" stroke-miterlimit="10"/>
<path id="Vector_6" d="M114.771 78.1346L111.217 65.9779C111.071 65.4773 110.613 65.1353 110.094 65.1353H100.257C99.6101 65.1353 99.085 65.6604 99.085 66.3076V78.4643C99.085 79.1115 99.6101 79.6366 100.257 79.6366H113.647C114.429 79.6366 114.991 78.8856 114.771 78.1346Z" fill="white" stroke="black" stroke-width="2" stroke-miterlimit="10"/>
<path id="Vector_7" d="M83.3809 89.8883V77.7256" stroke="black" stroke-width="2" stroke-miterlimit="10"/>
<path id="Vector_8" d="M77.5195 89.8883V77.7256" stroke="black" stroke-width="2" stroke-miterlimit="10"/>
<path id="Vector_9" d="M71.3096 89.8883V77.7256" stroke="black" stroke-width="2" stroke-miterlimit="10"/>
<path id="Vector_10" d="M166.59 125.29H0" stroke="black" stroke-width="2" stroke-miterlimit="10"/>
<path id="Vector_11" d="M44.4258 132.849H176.604" stroke="black" stroke-width="2" stroke-miterlimit="10"/>
<path id="Vector_12" d="M132.508 99.34H62.6336C55.4341 99.34 49.5977 105.176 49.5977 112.376C49.5977 119.575 55.4341 125.412 62.6336 125.412H132.508C139.708 125.412 145.544 119.575 145.544 112.376C145.544 105.176 139.708 99.34 132.508 99.34Z" fill="white" stroke="black" stroke-width="2" stroke-miterlimit="10"/>
<path id="Vector_13" d="M63.171 119.782C67.2614 119.782 70.5773 116.466 70.5773 112.376C70.5773 108.285 67.2614 104.969 63.171 104.969C59.0806 104.969 55.7646 108.285 55.7646 112.376C55.7646 116.466 59.0806 119.782 63.171 119.782Z" fill="white" stroke="black" stroke-width="2" stroke-miterlimit="10"/>
<path id="Vector_14" d="M132.275 119.782C136.366 119.782 139.682 116.466 139.682 112.376C139.682 108.285 136.366 104.969 132.275 104.969C128.185 104.969 124.869 108.285 124.869 112.376C124.869 116.466 128.185 119.782 132.275 119.782Z" fill="white" stroke="black" stroke-width="2" stroke-miterlimit="10"/>
<path id="Vector_15" d="M63.1709 104.976H134.187" stroke="black" stroke-width="2" stroke-miterlimit="10"/>
<path id="Vector_16" d="M132.276 119.782H63.1709" stroke="black" stroke-width="2" stroke-miterlimit="10"/>
<path id="Vector_17" d="M70.5774 57.735C73.8686 57.735 76.5366 55.067 76.5366 51.7758C76.5366 48.4846 73.8686 45.8165 70.5774 45.8165C67.2862 45.8165 64.6182 48.4846 64.6182 51.7758C64.6182 55.067 67.2862 57.735 70.5774 57.735Z" fill="white" stroke="black" stroke-width="2" stroke-miterlimit="10"/>
<path id="Vector_18" d="M64.6182 73.9949V51.7759" stroke="black" stroke-width="2" stroke-miterlimit="10"/>
<path id="Vector_19" d="M67.3291 46.7813L163.025 1.00009" stroke="black" stroke-width="2" stroke-miterlimit="10"/>
<path id="Vector_20" d="M171.433 6.61127V70.9969" stroke="black" stroke-width="2" stroke-miterlimit="10"/>
<path id="Vector_21" d="M174.162 77.5485H168.423L166.591 60.031L171.598 57.5887L176.604 60.031L174.162 77.5485Z" fill="white" stroke="black" stroke-width="2" stroke-miterlimit="10"/>
<path id="Vector_22" d="M171.494 76.9561V81.1386L168.734 84.106C168.111 84.7715 167.77 85.6507 167.77 86.5605V86.9513C167.77 88.0381 168.258 89.0639 169.101 89.7477L169.21 89.8393C170.603 90.975 172.624 90.9139 173.942 89.6867C174.681 89.0028 175.096 88.0442 175.096 87.0429V86.072" stroke="black" stroke-width="2" stroke-miterlimit="10"/>
<path id="Vector_23" d="M175.096 33.1288H167.77V48.8635H175.096V33.1288Z" fill="white" stroke="black" stroke-width="2" stroke-miterlimit="10"/>
</g>
</svg>
