<svg width="247" height="102" viewBox="0 0 247 102" fill="none" xmlns="http://www.w3.org/2000/svg">
<path d="M99.7482 63.0551H43.5312L57.589 34.3259H99.7482V63.0551Z" fill="white" stroke="black" stroke-width="2" stroke-miterlimit="10"/>
<path d="M239.445 20.1627H198.959V34.3259H239.445V20.1627Z" fill="white" stroke="black" stroke-width="2" stroke-miterlimit="10"/>
<path d="M201.227 41.612H169.555V84.5044H213.879V60.4839L201.227 41.612Z" fill="white" stroke="black" stroke-width="2" stroke-miterlimit="10"/>
<path d="M69.778 57.5721L65.7528 48.4955H27.6328V84.3559H195.229L186.668 64.1767C184.939 60.0999 181.678 57.5721 178.14 57.5721H69.778Z" fill="white" stroke="black" stroke-width="2" stroke-miterlimit="10"/>
<path d="M217.781 69.9321H22.4531V85.1238H217.781V69.9321Z" fill="white" stroke="black" stroke-width="2" stroke-miterlimit="10"/>
<path d="M41.8403 93.1782C47.4303 93.1782 51.9619 87.1866 51.9619 79.7956C51.9619 72.4046 47.4303 66.413 41.8403 66.413C36.2503 66.413 31.7188 72.4046 31.7188 79.7956C31.7188 87.1866 36.2503 93.1782 41.8403 93.1782Z" fill="white" stroke="black" stroke-width="2" stroke-miterlimit="10"/>
<path d="M67.6079 93.1782C73.1979 93.1782 77.7295 87.1866 77.7295 79.7956C77.7295 72.4046 73.1979 66.413 67.6079 66.413C62.0179 66.413 57.4863 72.4046 57.4863 79.7956C57.4863 87.1866 62.0179 93.1782 67.6079 93.1782Z" fill="white" stroke="black" stroke-width="2" stroke-miterlimit="10"/>
<path d="M93.3794 93.1782C98.9694 93.1782 103.501 87.1866 103.501 79.7956C103.501 72.4046 98.9694 66.413 93.3794 66.413C87.7894 66.413 83.2578 72.4046 83.2578 79.7956C83.2578 87.1866 87.7894 93.1782 93.3794 93.1782Z" fill="white" stroke="black" stroke-width="2" stroke-miterlimit="10"/>
<path d="M123.524 93.1782C129.114 93.1782 133.646 87.1866 133.646 79.7956C133.646 72.4046 129.114 66.413 123.524 66.413C117.934 66.413 113.402 72.4046 113.402 79.7956C113.402 87.1866 117.934 93.1782 123.524 93.1782Z" fill="white" stroke="black" stroke-width="2" stroke-miterlimit="10"/>
<path d="M149.293 93.1782C154.883 93.1782 159.415 87.1866 159.415 79.7956C159.415 72.4046 154.883 66.413 149.293 66.413C143.703 66.413 139.172 72.4046 139.172 79.7956C139.172 87.1866 143.703 93.1782 149.293 93.1782Z" fill="white" stroke="black" stroke-width="2" stroke-miterlimit="10"/>
<path d="M175.065 93.1782C180.655 93.1782 185.187 87.1866 185.187 79.7956C185.187 72.4046 180.655 66.413 175.065 66.413C169.475 66.413 164.943 72.4046 164.943 79.7956C164.943 87.1866 169.475 93.1782 175.065 93.1782Z" fill="white" stroke="black" stroke-width="2" stroke-miterlimit="10"/>
<path d="M41.8404 85.1237C39.6193 85.1237 37.8105 82.7322 37.8105 79.7955C37.8105 76.8587 39.6193 74.4672 41.8404 74.4672C44.0615 74.4672 45.8703 76.8587 45.8703 79.7955C45.8703 82.7322 44.0615 85.1237 41.8404 85.1237Z" fill="white"/>
<path d="M41.8404 85.1237C39.6193 85.1237 37.8105 82.7322 37.8105 79.7955C37.8105 76.8587 39.6193 74.4672 41.8404 74.4672C44.0615 74.4672 45.8703 76.8587 45.8703 79.7955C45.8703 82.7322 44.0615 85.1237 41.8404 85.1237Z" stroke="black" stroke-width="2" stroke-miterlimit="10"/>
<path d="M67.608 85.1239C65.3869 85.1239 63.5781 82.7324 63.5781 79.7957C63.5781 76.8589 65.3869 74.4674 67.608 74.4674C69.8291 74.4674 71.6379 76.8589 71.6379 79.7957C71.6379 82.7324 69.8291 85.1239 67.608 85.1239Z" fill="white"/>
<path d="M67.608 85.1239C65.3869 85.1239 63.5781 82.7324 63.5781 79.7957C63.5781 76.8589 65.3869 74.4674 67.608 74.4674C69.8291 74.4674 71.6379 76.8589 71.6379 79.7957C71.6379 82.7324 69.8291 85.1239 67.608 85.1239Z" stroke="black" stroke-width="2" stroke-miterlimit="10"/>
<path d="M93.3815 85.1239C91.1603 85.1239 89.3516 82.7324 89.3516 79.7957C89.3516 76.8589 91.1603 74.4674 93.3815 74.4674C95.6026 74.4674 97.4113 76.8589 97.4113 79.7957C97.4113 82.7324 95.6026 85.1239 93.3815 85.1239Z" fill="white"/>
<path d="M93.3815 85.1239C91.1603 85.1239 89.3516 82.7324 89.3516 79.7957C89.3516 76.8589 91.1603 74.4674 93.3815 74.4674C95.6026 74.4674 97.4113 76.8589 97.4113 79.7957C97.4113 82.7324 95.6026 85.1239 93.3815 85.1239Z" stroke="black" stroke-width="2" stroke-miterlimit="10"/>
<path d="M123.526 85.1239C121.305 85.1239 119.496 82.7324 119.496 79.7957C119.496 76.8589 121.305 74.4674 123.526 74.4674C125.747 74.4674 127.556 76.8589 127.556 79.7957C127.556 82.7324 125.747 85.1239 123.526 85.1239Z" fill="white"/>
<path d="M123.526 85.1239C121.305 85.1239 119.496 82.7324 119.496 79.7957C119.496 76.8589 121.305 74.4674 123.526 74.4674C125.747 74.4674 127.556 76.8589 127.556 79.7957C127.556 82.7324 125.747 85.1239 123.526 85.1239Z" stroke="black" stroke-width="2" stroke-miterlimit="10"/>
<path d="M149.294 85.1239C147.072 85.1239 145.264 82.7324 145.264 79.7957C145.264 76.8589 147.072 74.4674 149.294 74.4674C151.515 74.4674 153.323 76.8589 153.323 79.7957C153.323 82.7324 151.515 85.1239 149.294 85.1239Z" fill="white"/>
<path d="M149.294 85.1239C147.072 85.1239 145.264 82.7324 145.264 79.7957C145.264 76.8589 147.072 74.4674 149.294 74.4674C151.515 74.4674 153.323 76.8589 153.323 79.7957C153.323 82.7324 151.515 85.1239 149.294 85.1239Z" stroke="black" stroke-width="2" stroke-miterlimit="10"/>
<path d="M175.065 85.1239C172.844 85.1239 171.035 82.7324 171.035 79.7957C171.035 76.8589 172.844 74.4674 175.065 74.4674C177.286 74.4674 179.095 76.8589 179.095 79.7957C179.095 82.7324 177.286 85.1239 175.065 85.1239Z" fill="white"/>
<path d="M175.065 85.1239C172.844 85.1239 171.035 82.7324 171.035 79.7957C171.035 76.8589 172.844 74.4674 175.065 74.4674C177.286 74.4674 179.095 76.8589 179.095 79.7957C179.095 82.7324 177.286 85.1239 175.065 85.1239Z" stroke="black" stroke-width="2" stroke-miterlimit="10"/>
<path d="M71.6379 7.07758H19.4648V16.9844L27.6324 34.326H71.6379V7.07758Z" fill="white" stroke="black" stroke-width="2" stroke-miterlimit="10"/>
<path d="M220.977 14.9024H71.6367V34.3258H220.977V14.9024Z" fill="white" stroke="black" stroke-width="2" stroke-miterlimit="10"/>
<path d="M239.73 51.5434H226.422V14.9024H245.77L239.73 51.5434Z" fill="white" stroke="black" stroke-width="2" stroke-miterlimit="10"/>
<path d="M145.262 20.9H71.6367V34.3259H145.262V20.9Z" fill="white" stroke="black" stroke-width="2" stroke-miterlimit="10"/>
<path d="M154.919 14.9024H145.262V34.3258H154.919V14.9024Z" fill="white" stroke="black" stroke-width="2" stroke-miterlimit="10"/>
<path d="M220.978 7.07758H216.719V34.326H220.978V7.07758Z" fill="white" stroke="black" stroke-width="2" stroke-miterlimit="10"/>
<path d="M230.208 7.07758H226.422V51.5436H230.208V7.07758Z" fill="white" stroke="black" stroke-width="2" stroke-miterlimit="10"/>
<path d="M75.6057 1.84845H71.6367V34.326H75.6057V1.84845Z" fill="white" stroke="black" stroke-width="2" stroke-miterlimit="10"/>
<path d="M204.456 57.4109L197.779 46.7668H191.148V57.4109H204.456Z" fill="white" stroke="black" stroke-width="2" stroke-miterlimit="10"/>
<path d="M117.991 34.2513H71.8203V42.0826H117.991V34.2513Z" fill="white" stroke="black" stroke-width="2" stroke-miterlimit="10"/>
<path d="M27.6328 52.0889H67.346" stroke="black" stroke-width="2" stroke-miterlimit="10"/>
<path d="M61.2266 27.2441V14.9024" stroke="black" stroke-width="2" stroke-miterlimit="10"/>
<path d="M56.7266 27.2441V14.9024" stroke="black" stroke-width="2" stroke-miterlimit="10"/>
<path d="M51.9609 27.2441V14.9024" stroke="black" stroke-width="2" stroke-miterlimit="10"/>
<path d="M217.782 69.9321H213.879V85.1238H217.782V69.9321Z" fill="white" stroke="black" stroke-width="2" stroke-miterlimit="10"/>
<path d="M198.959 93.1785H0.613281" stroke="black" stroke-width="2" stroke-miterlimit="10"/>
<path d="M39.0898 100.848H140.526" stroke="black" stroke-width="2" stroke-miterlimit="10"/>
</svg>
