<svg width="201" height="81" viewBox="0 0 201 81" fill="none" xmlns="http://www.w3.org/2000/svg">
<g id="Group 138">
<g id="Group">
<path id="Vector" d="M75.8854 37.6242H37.398L31.5684 23.0443H81.715L75.8854 37.6242Z" fill="white" stroke="black" stroke-width="2" stroke-miterlimit="10"/>
<path id="Vector_2" d="M113.301 1.97021H108.27V33.9284H113.301V1.97021Z" fill="white" stroke="black" stroke-width="2" stroke-miterlimit="10"/>
<path id="Vector_3" d="M193.762 13.0233H154.715V22.8929H193.762V13.0233Z" fill="white" stroke="black" stroke-width="2" stroke-miterlimit="10"/>
<path id="Vector_4" d="M194.024 34.8902H180.016V9.36215H199.586L194.024 34.8902Z" fill="white" stroke="black" stroke-width="2" stroke-miterlimit="10"/>
<path id="Vector_5" d="M185.256 3.91156H180.016V34.8962H185.256V3.91156Z" fill="white" stroke="black" stroke-width="2" stroke-miterlimit="10"/>
<path id="Vector_6" d="M93.7949 43.0692H27.1328V51.4698H93.7949V43.0692Z" fill="white" stroke="black" stroke-width="2" stroke-miterlimit="10"/>
<path id="Vector_7" d="M174.238 9.20499H27.1328V23.0446H174.238V9.20499Z" fill="white" stroke="black" stroke-width="2" stroke-miterlimit="10"/>
<path id="Vector_8" d="M139.593 16.1247H113.301V63.0884H174.232V38.7904L149.095 33.9285L139.593 16.1247Z" fill="white" stroke="black" stroke-width="2" stroke-miterlimit="10"/>
<path id="Vector_9" d="M174.238 51.464H27.1328V65.1753H174.238V51.464Z" fill="white" stroke="black" stroke-width="2" stroke-miterlimit="10"/>
<path id="Vector_10" d="M174.238 55.9411H27.1328V65.0762H174.238V55.9411Z" fill="white" stroke="black" stroke-width="2" stroke-miterlimit="10"/>
<path id="Vector_11" d="M51.7053 73.7099C58.6597 73.7099 64.2974 68.0723 64.2974 61.1179C64.2974 54.1635 58.6597 48.5258 51.7053 48.5258C44.7509 48.5258 39.1133 54.1635 39.1133 61.1179C39.1133 68.0723 44.7509 73.7099 51.7053 73.7099Z" fill="white" stroke="black" stroke-width="2" stroke-miterlimit="10"/>
<path id="Vector_12" d="M83.7678 73.7099C90.7222 73.7099 96.3599 68.0723 96.3599 61.1179C96.3599 54.1635 90.7222 48.5258 83.7678 48.5258C76.8134 48.5258 71.1758 54.1635 71.1758 61.1179C71.1758 68.0723 76.8134 73.7099 83.7678 73.7099Z" fill="white" stroke="black" stroke-width="2" stroke-miterlimit="10"/>
<path id="Vector_13" d="M153.328 73.7099C160.283 73.7099 165.92 68.0723 165.92 61.1179C165.92 54.1635 160.283 48.5258 153.328 48.5258C146.374 48.5258 140.736 54.1635 140.736 61.1179C140.736 68.0723 146.374 73.7099 153.328 73.7099Z" fill="white" stroke="black" stroke-width="2" stroke-miterlimit="10"/>
<g id="Group_2">
<path id="Vector_14" d="M51.7049 66.1315C48.9417 66.1315 46.6914 63.8812 46.6914 61.118C46.6914 58.3547 48.9417 56.1045 51.7049 56.1045C54.4682 56.1045 56.7184 58.3547 56.7184 61.118C56.7184 63.8812 54.4682 66.1315 51.7049 66.1315Z" fill="white" stroke="black" stroke-width="2" stroke-miterlimit="10"/>
<path id="Vector_15" d="M51.7049 66.1315C48.9417 66.1315 46.6914 63.8812 46.6914 61.118C46.6914 58.3547 48.9417 56.1045 51.7049 56.1045C54.4682 56.1045 56.7184 58.3547 56.7184 61.118C56.7184 63.8812 54.4682 66.1315 51.7049 66.1315Z" fill="white" stroke="black" stroke-width="2" stroke-miterlimit="10"/>
</g>
<g id="Group_3">
<path id="Vector_16" d="M83.7674 66.1313C81.0042 66.1313 78.7539 63.8811 78.7539 61.1178C78.7539 58.3545 81.0042 56.1043 83.7674 56.1043C86.5307 56.1043 88.7809 58.3545 88.7809 61.1178C88.7809 63.8811 86.5307 66.1313 83.7674 66.1313Z" fill="white" stroke="black" stroke-width="2" stroke-miterlimit="10"/>
<path id="Vector_17" d="M83.7674 66.1313C81.0042 66.1313 78.7539 63.8811 78.7539 61.1178C78.7539 58.3545 81.0042 56.1043 83.7674 56.1043C86.5307 56.1043 88.7809 58.3545 88.7809 61.1178C88.7809 63.8811 86.5307 66.1313 83.7674 66.1313Z" fill="white" stroke="black" stroke-width="2" stroke-miterlimit="10"/>
</g>
<g id="Group_4">
<path id="Vector_18" d="M153.328 66.1315C150.565 66.1315 148.314 63.8813 148.314 61.118C148.314 58.3548 150.565 56.1045 153.328 56.1045C156.091 56.1045 158.341 58.3548 158.341 61.118C158.341 63.8813 156.091 66.1315 153.328 66.1315Z" fill="white" stroke="black" stroke-width="2" stroke-miterlimit="10"/>
<path id="Vector_19" d="M153.328 66.1315C150.565 66.1315 148.314 63.8813 148.314 61.118C148.314 58.3548 150.565 56.1045 153.328 56.1045C156.091 56.1045 158.341 58.3548 158.341 61.118C158.341 63.8813 156.091 66.1315 153.328 66.1315Z" fill="white" stroke="black" stroke-width="2" stroke-miterlimit="10"/>
</g>
<path id="Vector_20" d="M113.306 23.0443H103.238V68.6088H113.306V23.0443Z" fill="white" stroke="black" stroke-width="2" stroke-miterlimit="10"/>
<path id="Vector_21" d="M62.7169 4.17969H41.2871V37.6244H68.6807V22.8929L62.7169 4.17969Z" fill="white" stroke="black" stroke-width="2" stroke-miterlimit="10"/>
<path id="Vector_22" d="M61.3878 37.6245H41.2871V43.0635H61.3878V37.6245Z" fill="white" stroke="black" stroke-width="2" stroke-miterlimit="10"/>
<path id="Vector_23" d="M62.3551 22.8929L58.3093 9.04749H46.9648V22.8929H62.3551Z" fill="white" stroke="black" stroke-width="2" stroke-miterlimit="10"/>
<path id="Vector_24" d="M143.353 35.0476L136.392 21.1964H119.475V35.0476H143.353Z" fill="white" stroke="black" stroke-width="2" stroke-miterlimit="10"/>
<path id="Vector_25" d="M169.639 37.8983V55.1365" stroke="black" stroke-width="2" stroke-miterlimit="10"/>
</g>
<path id="Vector_26" d="M0.421875 73.7101H186.388" stroke="black" stroke-width="2" stroke-miterlimit="10"/>
<path id="Vector_27" d="M30.4395 79.8484H156.64" stroke="black" stroke-width="2" stroke-miterlimit="10"/>
</g>
</svg>
