<svg width="16" height="16" viewBox="0 0 16 16" fill="none" xmlns="http://www.w3.org/2000/svg">
<g id="location_on">
<path id="icon" d="M7.99992 14.6668C7.84436 14.6668 7.71103 14.6224 7.59992 14.5335C7.48881 14.4446 7.40547 14.3279 7.34992 14.1835C7.13881 13.5613 6.87214 12.9779 6.54992 12.4335C6.23881 11.8891 5.79992 11.2502 5.23325 10.5168C4.66659 9.78349 4.20547 9.0835 3.84992 8.41683C3.50547 7.75016 3.33325 6.94461 3.33325 6.00016C3.33325 4.70016 3.78325 3.60016 4.68325 2.70016C5.59436 1.78905 6.69992 1.3335 7.99992 1.3335C9.29992 1.3335 10.3999 1.78905 11.2999 2.70016C12.211 3.60016 12.6666 4.70016 12.6666 6.00016C12.6666 7.01127 12.4721 7.85572 12.0833 8.53349C11.7055 9.20016 11.2666 9.86127 10.7666 10.5168C10.1666 11.3168 9.71103 11.9835 9.39992 12.5168C9.09992 13.0391 8.84992 13.5946 8.64992 14.1835C8.59436 14.3391 8.50548 14.4613 8.38325 14.5502C8.27214 14.6279 8.14436 14.6668 7.99992 14.6668ZM7.99992 12.2835C8.18881 11.9057 8.39992 11.5335 8.63325 11.1668C8.8777 10.8002 9.23325 10.3113 9.69992 9.70016C10.1777 9.07794 10.5666 8.50572 10.8666 7.98349C11.1777 7.45016 11.3333 6.78905 11.3333 6.00016C11.3333 5.07794 11.0055 4.29461 10.3499 3.65016C9.70547 2.99461 8.92214 2.66683 7.99992 2.66683C7.0777 2.66683 6.28881 2.99461 5.63325 3.65016C4.98881 4.29461 4.66659 5.07794 4.66659 6.00016C4.66659 6.78905 4.81659 7.45016 5.11659 7.98349C5.4277 8.50572 5.82214 9.07794 6.29992 9.70016C6.76659 10.3113 7.11659 10.8002 7.34992 11.1668C7.59436 11.5335 7.81103 11.9057 7.99992 12.2835ZM7.99992 7.66683C8.46659 7.66683 8.86103 7.50572 9.18325 7.1835C9.50547 6.86127 9.66659 6.46683 9.66659 6.00016C9.66659 5.53349 9.50547 5.13905 9.18325 4.81683C8.86103 4.49461 8.46659 4.3335 7.99992 4.3335C7.53325 4.3335 7.13881 4.49461 6.81659 4.81683C6.49436 5.13905 6.33325 5.53349 6.33325 6.00016C6.33325 6.46683 6.49436 6.86127 6.81659 7.1835C7.13881 7.50572 7.53325 7.66683 7.99992 7.66683Z" fill="#D84339"/>
</g>
</svg>
