<svg width="16" height="17" viewBox="0 0 16 17" fill="none" xmlns="http://www.w3.org/2000/svg">
<g id="mail">
<path id="icon" d="M2.66659 13.8332C2.29992 13.8332 1.98603 13.7026 1.72492 13.4415C1.46381 13.1804 1.33325 12.8665 1.33325 12.4998V4.49984C1.33325 4.13317 1.46381 3.81928 1.72492 3.55817C1.98603 3.29706 2.29992 3.1665 2.66659 3.1665H13.3333C13.6999 3.1665 14.0138 3.29706 14.2749 3.55817C14.536 3.81928 14.6666 4.13317 14.6666 4.49984V12.4998C14.6666 12.8665 14.536 13.1804 14.2749 13.4415C14.0138 13.7026 13.6999 13.8332 13.3333 13.8332H2.66659ZM7.99992 9.1665L2.66659 5.83317V12.4998H13.3333V5.83317L7.99992 9.1665ZM7.99992 7.83317L13.3333 4.49984H2.66659L7.99992 7.83317ZM2.66659 5.83317V4.49984V12.4998V5.83317Z" fill="#D84339"/>
</g>
</svg>
