<svg width="129" height="128" viewBox="0 0 129 128" fill="none" xmlns="http://www.w3.org/2000/svg">
<path d="M37.8335 74.6666V58.1866C33.9935 56.4266 30.4202 54.2933 27.1668 51.7866V74.6666H37.8335ZM27.1668 95.9999H16.5002V85.3333H5.8335V74.6666H16.5002V37.3333H27.1668V44.9599C36.7668 53.3333 49.9402 58.6666 64.5002 58.6666C79.0602 58.6666 92.2335 53.3333 101.833 44.9599V37.3333H112.5V74.6666H123.167V85.3333H112.5V95.9999H101.833V85.3333H27.1668V95.9999ZM91.1668 58.1866V74.6666H101.833V51.7866C98.5802 54.2933 95.0068 56.4266 91.1668 58.1866ZM85.8335 74.6666V60.3733C82.4202 61.5999 78.8468 62.5066 75.1668 63.1466V74.6666H85.8335ZM69.8335 74.6666V63.7866L64.5002 63.9999L59.1668 63.7866V74.6666H69.8335ZM53.8335 74.6666V63.1466C50.1535 62.5066 46.5802 61.5999 43.1668 60.3733V74.6666H53.8335Z" fill="#D84339"/>
</svg>
