<svg width="129" height="128" viewBox="0 0 129 128" fill="none" xmlns="http://www.w3.org/2000/svg">
<path d="M30.9 37.1001L41.8 76.5501C43.525 76.5501 45.275 76.5501 47.1 76.5251L62.825 60.0751C60.875 54.7251 56.25 48.6751 50.275 44.1751C44.625 39.9501 37.875 37.1251 31.15 37.1001H30.9ZM18.5575 49.3501L26.25 76.6501C29.775 76.6251 32.925 76.6001 37.15 76.5751L31.6 56.5001C27.55 52.6501 23.0475 49.9251 18.5575 49.3501ZM86.925 53.1501C84.75 53.2001 82.65 53.5251 80.625 54.1251C75.9 55.5001 71.875 58.2751 69.6 61.2751L80.45 76.5001H84.125L95.75 54.8751C93.025 53.7001 90.225 53.1751 87.475 53.1501H86.925ZM8.1325 61.9251L12.6825 76.7251C14.93 76.7001 18.0825 76.7001 21.5725 76.6751L18.1125 64.3751C15.3375 63.0751 12.0225 62.1751 8.1325 61.9251ZM65.675 63.5751L53.35 76.5251C60.35 76.5001 67.6 76.4751 74.925 76.4751L65.725 63.5751H65.675ZM107.15 66.0501C106.425 66.0501 105.75 66.0751 105.075 66.1001C100.675 66.4001 97.325 67.6751 94.65 69.7251L100.75 76.5751C104.85 76.6001 108.775 76.6501 112.5 76.7001L122.225 68.9251C116.3 66.9751 111.3 66.0751 107.15 66.0501ZM91.275 72.7001L89.225 76.5251H94.7L91.275 72.7001ZM71.675 80.9751C40.275 80.9751 10.5425 81.2501 8.61 81.2751L5.7325 92.7751H45.45L49.45 84.7751H84.25L88.225 92.7751H119.975L117.1 81.2501C107.825 81.1001 96.8 81.0251 85.175 81.0001C80.7 80.9751 76.175 80.9751 71.675 80.9751ZM14.85 84.7751H30.85V89.2751H14.85V84.7751ZM52.25 89.2751L50.475 92.7751H83.2L81.45 89.2751H52.25ZM16.25 101.75C12.955 101.75 8.9325 102.825 5.5375 103.85C5.2675 103.925 5.01 104.025 4.75 104.1V108.8C5.3975 108.6 6.0975 108.375 6.84 108.15C10.07 107.175 14.0475 106.25 16.25 106.25C18.4525 106.25 20.8225 107.1 23.4475 108.1C26.075 109.1 28.95 110.25 32.25 110.25C35.55 110.25 38.425 109.1 41.05 108.1C43.675 107.1 46.05 106.25 48.25 106.25C50.45 106.25 52.825 107.1 55.45 108.1C58.075 109.1 60.95 110.25 64.25 110.25C67.55 110.25 70.425 109.1 73.05 108.1C75.675 107.1 78.05 106.25 80.25 106.25C82.45 106.25 84.825 107.1 87.45 108.1C90.075 109.1 92.95 110.25 96.25 110.25C99.55 110.25 102.425 109.1 105.05 108.1C107.675 107.1 110.05 106.25 112.25 106.25C114.45 106.25 118.425 107.175 121.65 108.15C122.4 108.375 123.1 108.6 123.75 108.8V104.1C123.5 104 123.25 103.925 122.975 103.85C119.575 102.825 115.55 101.75 112.25 101.75C108.95 101.75 106.075 102.9 103.45 103.9C100.825 104.9 98.45 105.75 96.25 105.75C94.05 105.75 91.675 104.9 89.05 103.9C86.425 102.9 83.55 101.75 80.25 101.75C76.95 101.75 74.075 102.9 71.45 103.9C68.825 104.9 66.45 105.75 64.25 105.75C62.05 105.75 59.675 104.9 57.05 103.9C54.425 102.9 51.55 101.75 48.25 101.75C44.95 101.75 42.075 102.9 39.45 103.9C36.825 104.9 34.45 105.75 32.25 105.75C30.05 105.75 27.675 104.9 25.05 103.9C22.425 102.9 19.545 101.75 16.25 101.75Z" fill="#D84339"/>
</svg>
