<svg width="128" height="128" viewBox="0 0 128 128" fill="none" xmlns="http://www.w3.org/2000/svg">
<path d="M101.163 54.9034L97.6299 52.497C101.754 46.4231 104.155 39.3456 104.579 32.0163C105.003 24.6871 103.433 17.3799 100.036 10.8714L99.3195 9.56575L103.04 7.46655L103.808 8.89162C107.566 16.0843 109.305 24.1609 108.839 32.2628C108.373 40.3646 105.72 48.1888 101.163 54.9034ZM110.993 115.755V119.467H17.1265V115.755H38.3574L51.5755 54.6132C51.7822 53.6604 52.309 52.8071 53.0683 52.1953C53.8275 51.5836 54.7733 51.2504 55.7483 51.2511H61.935V39.2532C59.8095 38.7595 57.9117 37.5654 56.5466 35.863C55.1816 34.1605 54.4286 32.0486 54.4086 29.8666C54.3698 28.5461 54.5963 27.2314 55.0748 26.0001C55.5533 24.7688 56.274 23.6461 57.1942 22.6984C58.1145 21.7507 59.2155 20.9973 60.4322 20.4828C61.6489 19.9683 62.9564 19.7033 64.2774 19.7033C65.5984 19.7033 66.9059 19.9683 68.1226 20.4828C69.3393 20.9973 70.4403 21.7507 71.3606 22.6984C72.2808 23.6461 73.0015 24.7688 73.48 26.0001C73.9585 27.2314 74.185 28.5461 74.1462 29.8666C74.1274 32.1217 73.3256 34.3004 71.878 36.0297C70.4304 37.7591 68.4269 38.9317 66.2102 39.3471V51.2511H72.3627C73.3392 51.2484 74.287 51.5808 75.048 52.1927C75.809 52.8046 76.3371 53.6589 76.5441 54.6132L89.7451 115.755H110.993ZM72.1409 74.6751H55.9787L53.2225 87.4154H74.9057L72.1409 74.6751ZM52.2923 91.682L49.5361 104.439H78.575L75.8187 91.682H52.2923ZM59.1873 59.7844L56.8833 70.4084H71.2193L68.9238 59.7844H59.1873ZM47.087 115.763H81.0241L79.4966 108.706H48.6059L47.087 115.763ZM44.4587 42.7775C41.9091 38.9074 40.5616 34.3694 40.5859 29.735C40.6102 25.1005 42.0052 20.5769 44.5953 16.7338L41.0625 14.3444C37.9987 18.8854 36.3482 24.2319 36.3194 29.7097C36.2905 35.1875 37.8845 40.5512 40.9003 45.1242L44.4587 42.7775ZM91.7931 29.8666C91.7985 24.4499 90.2141 19.1508 87.2363 14.626L83.6694 16.9727C86.2129 20.8427 87.5554 25.3783 87.528 30.0092C87.5007 34.6402 86.1048 39.1596 83.5158 42.9994L87.0486 45.3716C90.147 40.795 91.7999 35.3934 91.7931 29.8666ZM30.1569 52.2068C26.025 45.9265 23.7154 38.6234 23.4849 31.1093C23.2544 23.5952 25.112 16.1643 28.8513 9.64255L25.1563 7.50922C21.0216 14.7187 18.9681 22.9339 19.2242 31.2409C19.4803 39.5479 22.036 47.621 26.607 54.562L30.1569 52.2068Z" fill="#D84339"/>
</svg>
