<svg width="129" height="128" viewBox="0 0 129 128" fill="none" xmlns="http://www.w3.org/2000/svg">
<path d="M71.374 52.2666L51.5073 72.1333H77.9927L58.126 91.9999" stroke="#D84339" stroke-width="6" stroke-linecap="round" stroke-linejoin="round"/>
<path d="M56.0407 23.7973L15.4274 94.16C14.5453 95.6888 14.0813 97.4229 14.082 99.1879C14.0827 100.953 14.5481 102.687 15.4314 104.215C16.3146 105.743 17.5846 107.012 19.1137 107.893C20.6428 108.775 22.377 109.238 24.1421 109.237H105.358C107.123 109.238 108.856 108.773 110.385 107.891C111.913 107.009 113.182 105.741 114.065 104.213C114.947 102.685 115.412 100.951 115.413 99.1866C115.413 97.422 114.949 95.6884 114.067 94.16L73.4594 23.7973C72.5774 22.2676 71.3081 20.9973 69.7792 20.114C68.2503 19.2307 66.5158 18.7656 64.7501 18.7656C62.9843 18.7656 61.2498 19.2307 59.7209 20.114C58.192 20.9973 56.9227 22.2676 56.0407 23.7973Z" stroke="#D84339" stroke-width="6" stroke-linecap="round" stroke-linejoin="round"/>
</svg>
