<svg width="129" height="128" viewBox="0 0 129 128" fill="none" xmlns="http://www.w3.org/2000/svg">
<path d="M67.1667 42.6667V37.3334H72.5V32.0001H67.1667V26.6667H61.8333V32.0001H56.5V37.3334H61.8333V42.6667H67.1667Z" fill="#D84339"/>
<path fill-rule="evenodd" clip-rule="evenodd" d="M66.1667 13.92C65.6938 13.5413 65.106 13.335 64.5001 13.335C63.8942 13.335 63.3064 13.5413 62.8334 13.92L23.5667 45.3333H19.1667C18.4595 45.3333 17.7812 45.6142 17.2811 46.1143C16.781 46.6144 16.5001 47.2927 16.5001 48V58.6666C16.5001 59.3739 16.781 60.0522 17.2811 60.5522C17.7812 61.0523 18.4595 61.3333 19.1667 61.3333H21.8334V88H19.1667C18.4595 88 17.7812 88.2809 17.2811 88.781C16.781 89.2811 16.5001 89.9594 16.5001 90.6666V98.6666H13.8334C13.1262 98.6666 12.4479 98.9476 11.9478 99.4477C11.4477 99.9478 11.1667 100.626 11.1667 101.333V112C11.1667 112.707 11.4477 113.385 11.9478 113.886C12.4479 114.386 13.1262 114.667 13.8334 114.667H115.167C115.874 114.667 116.552 114.386 117.052 113.886C117.552 113.385 117.833 112.707 117.833 112V101.333C117.833 100.626 117.552 99.9478 117.052 99.4477C116.552 98.9476 115.874 98.6666 115.167 98.6666H112.5V90.6666C112.5 89.9594 112.219 89.2811 111.719 88.781C111.219 88.2809 110.541 88 109.833 88H107.167V61.3333H109.833C110.541 61.3333 111.219 61.0523 111.719 60.5522C112.219 60.0522 112.5 59.3739 112.5 58.6666V48C112.5 47.2927 112.219 46.6144 111.719 46.1143C111.219 45.6142 110.541 45.3333 109.833 45.3333H105.433L66.1667 13.92ZM96.8974 45.3333L64.5001 19.4133L32.1001 45.3333H96.8974ZM21.8334 50.6666V56H107.167V50.6666H21.8334ZM101.833 61.3333H96.5001V88H101.833V61.3333ZM91.1667 88V61.3333H37.8334V88H40.5001C41.2073 88 41.8856 88.2809 42.3857 88.781C42.8858 89.2811 43.1667 89.9594 43.1667 90.6666V98.6666H53.8334V77.3333C53.8334 74.5043 54.9572 71.7912 56.9576 69.7908C58.958 67.7904 61.6711 66.6666 64.5001 66.6666C67.3291 66.6666 70.0422 67.7904 72.0425 69.7908C74.0429 71.7912 75.1667 74.5043 75.1667 77.3333V98.6666H85.8334V90.6666C85.8334 89.9594 86.1144 89.2811 86.6145 88.781C87.1146 88.2809 87.7928 88 88.5001 88H91.1667ZM59.1667 77.3333V98.6666H69.8334V77.3333C69.8334 75.9188 69.2715 74.5623 68.2713 73.5621C67.2711 72.5619 65.9146 72 64.5001 72C63.0856 72 61.729 72.5619 60.7288 73.5621C59.7286 74.5623 59.1667 75.9188 59.1667 77.3333ZM112.5 104V109.333H16.5001V104H112.5ZM91.1667 93.3333V98.6666H107.167V93.3333H91.1667ZM27.1667 88V61.3333H32.5001V88H27.1667ZM21.8334 93.3333H37.8334V98.6666H21.8334V93.3333Z" fill="#D84339"/>
</svg>
