<svg width="32" height="32" viewBox="0 0 32 32" fill="none" xmlns="http://www.w3.org/2000/svg">
<g id="ic:round-navigate-next">
<path id="Vector" d="M12.4134 8.94668C12.2898 9.07003 12.1917 9.21655 12.1248 9.37784C12.0579 9.53914 12.0234 9.71205 12.0234 9.88668C12.0234 10.0613 12.0579 10.2342 12.1248 10.3955C12.1917 10.5568 12.2898 10.7033 12.4134 10.8267L17.5867 16L12.4134 21.1733C12.1641 21.4226 12.024 21.7608 12.024 22.1133C12.024 22.4659 12.1641 22.804 12.4134 23.0533C12.6627 23.3026 13.0008 23.4427 13.3534 23.4427C13.7059 23.4427 14.0441 23.3026 14.2934 23.0533L20.4134 16.9333C20.537 16.81 20.635 16.6635 20.7019 16.5022C20.7688 16.3409 20.8033 16.168 20.8033 15.9933C20.8033 15.8187 20.7688 15.6458 20.7019 15.4845C20.635 15.3232 20.537 15.1767 20.4134 15.0533L14.2934 8.93334C13.7867 8.42668 12.9334 8.42668 12.4134 8.94668Z" fill="white"/>
</g>
</svg>
